<svg width="24" height="24" viewBox="0 0 24 24" fill="none" xmlns="http://www.w3.org/2000/svg">
<path d="M20.4 24C19.62 24 18.92 23.75 18.3 23.25C17.68 22.75 17.25 22.1111 17.01 21.3333H10.8C9.48 21.3333 8.35 20.8111 7.41 19.7667C6.47 18.7222 6 17.4667 6 16C6 14.5333 6.47 13.2778 7.41 12.2333C8.35 11.1889 9.48 10.6667 10.8 10.6667H13.2C13.86 10.6667 14.425 10.4056 14.895 9.88333C15.365 9.36111 15.6 8.73333 15.6 8C15.6 7.26667 15.365 6.63889 14.895 6.11667C14.425 5.59444 13.86 5.33333 13.2 5.33333H6.99C6.73 6.11111 6.295 6.75 5.685 7.25C5.075 7.75 4.38 8 3.6 8C2.6 8 1.75 7.61111 1.05 6.83333C0.35 6.05556 0 5.11111 0 4C0 2.88889 0.35 1.94444 1.05 1.16667C1.75 0.388889 2.6 0 3.6 0C4.38 0 5.075 0.25 5.685 0.75C6.295 1.25 6.73 1.88889 6.99 2.66667H13.2C14.52 2.66667 15.65 3.18889 16.59 4.23333C17.53 5.27778 18 6.53333 18 8C18 9.46667 17.53 10.7222 16.59 11.7667C15.65 12.8111 14.52 13.3333 13.2 13.3333H10.8C10.14 13.3333 9.575 13.5944 9.105 14.1167C8.635 14.6389 8.4 15.2667 8.4 16C8.4 16.7333 8.635 17.3611 9.105 17.8833C9.575 18.4056 10.14 18.6667 10.8 18.6667H17.01C17.27 17.8889 17.705 17.25 18.315 16.75C18.925 16.25 19.62 16 20.4 16C21.4 16 22.25 16.3889 22.95 17.1667C23.65 17.9444 24 18.8889 24 20C24 21.1111 23.65 22.0556 22.95 22.8333C22.25 23.6111 21.4 24 20.4 24ZM3.6 5.33333C3.94 5.33333 4.225 5.20556 4.455 4.95C4.685 4.69444 4.8 4.37778 4.8 4C4.8 3.62222 4.685 3.30556 4.455 3.05C4.225 2.79444 3.94 2.66667 3.6 2.66667C3.26 2.66667 2.975 2.79444 2.745 3.05C2.515 3.30556 2.4 3.62222 2.4 4C2.4 4.37778 2.515 4.69444 2.745 4.95C2.975 5.20556 3.26 5.33333 3.6 5.33333Z" fill="#4EDAD4"/>
</svg>
