<svg width="40" height="40" viewBox="0 0 40 40" fill="none" xmlns="http://www.w3.org/2000/svg">
<g filter="url(#filter0_i_27_242)">
<mask id="mask0_27_242" style="mask-type:alpha" maskUnits="userSpaceOnUse" x="0" y="0" width="40" height="40">
<rect width="40" height="40" fill="#D9D9D9"/>
</mask>
<g mask="url(#mask0_27_242)">
<path d="M33 34.9722L22.1945 24.1667C21.3611 24.8704 20.3939 25.4213 19.2928 25.8194C18.1917 26.2176 17.02 26.4167 15.7778 26.4167C12.7655 26.4167 10.2162 25.3727 8.12971 23.2847C6.04324 21.1968 5 18.6667 5 15.6945C5 12.7222 6.04399 10.1921 8.13196 8.10417C10.2199 6.0162 12.7546 4.97221 15.7361 4.97221C18.7176 4.97221 21.2477 6.0162 23.3264 8.10417C25.4051 10.1921 26.4445 12.7236 26.4445 15.6986C26.4445 16.8995 26.25 18.0509 25.8611 19.1528C25.4722 20.2546 24.9074 21.2685 24.1667 22.1945L35 32.9723L33 34.9722ZM15.75 23.6389C17.9491 23.6389 19.8183 22.8635 21.3576 21.3125C22.897 19.7616 23.6667 17.8889 23.6667 15.6945C23.6667 13.5 22.897 11.6273 21.3576 10.0764C19.8183 8.52546 17.9491 7.75001 15.75 7.75001C13.5355 7.75001 11.6532 8.52546 10.103 10.0764C8.55283 11.6273 7.77775 13.5 7.77775 15.6945C7.77775 17.8889 8.55283 19.7616 10.103 21.3125C11.6532 22.8635 13.5355 23.6389 15.75 23.6389ZM11.5278 17.0555V14.2778H19.8889V17.0555H11.5278Z" fill="#1C1B1F"/>
</g>
</g>
<defs>
<filter id="filter0_i_27_242" x="0" y="0" width="40" height="44" filterUnits="userSpaceOnUse" color-interpolation-filters="sRGB">
<feFlood flood-opacity="0" result="BackgroundImageFix"/>
<feBlend mode="normal" in="SourceGraphic" in2="BackgroundImageFix" result="shape"/>
<feColorMatrix in="SourceAlpha" type="matrix" values="0 0 0 0 0 0 0 0 0 0 0 0 0 0 0 0 0 0 127 0" result="hardAlpha"/>
<feOffset dy="4"/>
<feGaussianBlur stdDeviation="2"/>
<feComposite in2="hardAlpha" operator="arithmetic" k2="-1" k3="1"/>
<feColorMatrix type="matrix" values="0 0 0 0 0 0 0 0 0 0 0 0 0 0 0 0 0 0 0.25 0"/>
<feBlend mode="normal" in2="shape" result="effect1_innerShadow_27_242"/>
</filter>
</defs>
</svg>
