<svg width="40" height="40" viewBox="0 0 40 40" fill="none" xmlns="http://www.w3.org/2000/svg">
<mask id="mask0_27_248" style="mask-type:alpha" maskUnits="userSpaceOnUse" x="0" y="0" width="40" height="40">
<rect width="40" height="40" fill="#D9D9D9"/>
</mask>
<g mask="url(#mask0_27_248)">
<path d="M28.4166 30.5556H36.6944V33.3333H25.6388L28.4166 30.5556ZM7.61102 33.3333L4.18048 29.8195C3.6342 29.2917 3.36337 28.6435 3.36798 27.875C3.37262 27.1065 3.62956 26.4537 4.13881 25.9167L22.9722 5.75C23.4814 5.21297 24.1186 4.94446 24.8837 4.94446C25.6488 4.94446 26.2941 5.20835 26.8194 5.73612L35.2777 14.4722C35.8055 15 36.0786 15.6528 36.0971 16.4305C36.1157 17.2083 35.861 17.8611 35.3333 18.3889L21.1944 33.3333H7.61102ZM20.0833 30.5556L33.4444 16.3055L24.9444 7.52775L6.1666 27.8333L8.83327 30.5556H20.0833Z" fill="#1C1B1F"/>
</g>
</svg>
