<svg width="40" height="40" viewBox="0 0 40 40" fill="none" xmlns="http://www.w3.org/2000/svg">
<mask id="mask0_27_212" style="mask-type:alpha" maskUnits="userSpaceOnUse" x="0" y="0" width="40" height="40">
<rect width="40" height="40" fill="#D9D9D9"/>
</mask>
<g mask="url(#mask0_27_212)">
<path d="M3.33325 40V34.4167H36.6666V40H3.33325ZM9.44434 27.1945H11.4443L26.6388 12.0138L24.625 9.99997L9.44434 25.1945V27.1945ZM6.66659 29.9722V24.0556L26.6111 4.12501C26.8796 3.85648 27.1828 3.65741 27.5208 3.5278C27.8587 3.39816 28.2036 3.33334 28.5555 3.33334C28.9074 3.33334 29.2592 3.39816 29.611 3.5278C29.9629 3.65741 30.2685 3.86111 30.5277 4.13889L32.5138 6.13889C32.7916 6.38889 32.9976 6.68982 33.1319 7.04168C33.2661 7.39351 33.3333 7.74536 33.3333 8.09722C33.3333 8.4398 33.2661 8.78008 33.1319 9.11805C32.9976 9.456 32.7916 9.76386 32.5138 10.0416L12.5832 29.9722H6.66659Z" fill="#1C1B1F"/>
</g>
</svg>
