<svg width="40" height="40" viewBox="0 0 40 40" fill="none" xmlns="http://www.w3.org/2000/svg">
<path d="M14.9999 26.6667H18.3333V13.3333H14.9999V26.6667ZM19.9999 3.33333C10.7999 3.33333 3.33325 10.8 3.33325 20C3.33325 29.2 10.7999 36.6667 19.9999 36.6667C29.1999 36.6667 36.6666 29.2 36.6666 20C36.6666 10.8 29.1999 3.33333 19.9999 3.33333ZM19.9999 33.3333C12.6499 33.3333 6.66659 27.35 6.66659 20C6.66659 12.65 12.6499 6.66667 19.9999 6.66667C27.3499 6.66667 33.3333 12.65 33.3333 20C33.3333 27.35 27.3499 33.3333 19.9999 33.3333ZM21.6666 26.6667H24.9999V13.3333H21.6666V26.6667Z" fill="black"/>
</svg>
