<svg width="40" height="40" viewBox="0 0 40 40" fill="none" xmlns="http://www.w3.org/2000/svg">
<mask id="mask0_27_230" style="mask-type:alpha" maskUnits="userSpaceOnUse" x="0" y="0" width="40" height="40">
<rect width="40" height="40" fill="#D9D9D9"/>
</mask>
<g mask="url(#mask0_27_230)">
<path d="M19.9999 36.6667C16.7407 36.6667 13.9814 35.537 11.7221 33.2778C9.46288 31.0185 8.33325 28.2592 8.33325 25V14.4444C8.33325 11.1852 9.46288 8.42591 11.7221 6.16666C13.9814 3.90738 16.7407 2.77774 19.9999 2.77774C23.2592 2.77774 26.0184 3.90738 28.2777 6.16666C30.537 8.42591 31.6666 11.1852 31.6666 14.4444V25C31.6666 28.2592 30.537 31.0185 28.2777 33.2778C26.0184 35.537 23.2592 36.6667 19.9999 36.6667ZM21.3888 14.4444H28.8888C28.8888 12.2777 28.1874 10.3564 26.7847 8.68053C25.3819 7.00459 23.5832 5.99995 21.3888 5.66662V14.4444ZM11.111 14.4444H18.611V5.66662C16.4166 5.99995 14.618 7.00459 13.2152 8.68053C11.8124 10.3564 11.111 12.2777 11.111 14.4444ZM19.994 33.8889C22.4517 33.8889 24.5485 33.0222 26.2847 31.2889C28.0208 29.5556 28.8888 27.4593 28.8888 25V17.2222H11.111V25C11.111 27.4593 11.9771 29.5556 13.7093 31.2889C15.4415 33.0222 17.5364 33.8889 19.994 33.8889Z" fill="#1C1B1F"/>
</g>
</svg>
