<svg width="60" height="60" viewBox="0 0 60 60" fill="none" xmlns="http://www.w3.org/2000/svg">
<mask id="mask0_34_19" style="mask-type:alpha" maskUnits="userSpaceOnUse" x="0" y="0" width="60" height="60">
<rect width="60" height="60" fill="#D9D9D9"/>
</mask>
<g mask="url(#mask0_34_19)">
<path d="M22.1875 52.5C19.4792 52.5 17.1875 51.5514 15.3125 49.6543C13.4375 47.7572 12.5 45.4766 12.5 42.8125V21C11.0417 20.4583 9.84375 19.5987 8.90625 18.4211C7.96875 17.2434 7.5 15.9016 7.5 14.3958C7.5 12.4653 8.17708 10.8333 9.53125 9.5C10.8854 8.16667 12.5104 7.5 14.4062 7.5C16.3021 7.5 17.9167 8.16954 19.25 9.50863C20.5833 10.8478 21.25 12.4738 21.25 14.3868C21.25 15.8789 20.7812 17.2188 19.8438 18.4062C18.9062 19.5938 17.7083 20.4583 16.25 21V42.8125C16.25 44.4453 16.8229 45.8431 17.9688 47.0059C19.1146 48.1686 20.5313 48.75 22.2188 48.75C23.9062 48.75 25.3125 48.1686 26.4375 47.0059C27.5625 45.8431 28.125 44.4453 28.125 42.8125V17.1875C28.125 14.4792 29.0625 12.1875 30.9375 10.3125C32.8125 8.4375 35.1042 7.5 37.8125 7.5C40.5208 7.5 42.8125 8.4375 44.6875 10.3125C46.5625 12.1875 47.5 14.4792 47.5 17.1875V39C48.9583 39.5417 50.1562 40.4034 51.0938 41.5853C52.0312 42.7672 52.5 44.1138 52.5 45.625C52.5 47.5 51.8316 49.1146 50.4948 50.4688C49.158 51.8229 47.5347 52.5 45.625 52.5C43.75 52.5 42.1354 51.8229 40.7812 50.4688C39.4271 49.1146 38.75 47.5 38.75 45.625C38.75 44.1126 39.2188 42.7554 40.1562 41.5532C41.0938 40.3511 42.2917 39.5 43.75 39V17.1875C43.75 15.5208 43.1771 14.1146 42.0312 12.9688C40.8854 11.8229 39.4792 11.25 37.8125 11.25C36.1458 11.25 34.7396 11.8229 33.5938 12.9688C32.4479 14.1146 31.875 15.5208 31.875 17.1875V42.8125C31.875 45.4766 30.9375 47.7572 29.0625 49.6543C27.1875 51.5514 24.8958 52.5 22.1875 52.5ZM14.4062 17.5C15.2604 17.5 15.9896 17.1875 16.5938 16.5625C17.1979 15.9375 17.5 15.1979 17.5 14.3438C17.5 13.4896 17.2005 12.7604 16.6016 12.1562C16.0026 11.5521 15.2604 11.25 14.375 11.25C13.5417 11.25 12.8125 11.5495 12.1875 12.1484C11.5625 12.7474 11.25 13.4896 11.25 14.375C11.25 15.2083 11.5625 15.9375 12.1875 16.5625C12.8125 17.1875 13.5521 17.5 14.4062 17.5ZM45.6562 48.75C46.5104 48.75 47.2396 48.4375 47.8438 47.8125C48.4479 47.1875 48.75 46.4479 48.75 45.5938C48.75 44.7396 48.4505 44.0104 47.8516 43.4062C47.2526 42.8021 46.5104 42.5 45.625 42.5C44.7917 42.5 44.0625 42.7995 43.4375 43.3984C42.8125 43.9974 42.5 44.7396 42.5 45.625C42.5 46.4583 42.8125 47.1875 43.4375 47.8125C44.0625 48.4375 44.8021 48.75 45.6562 48.75Z" fill="#FAFDFB"/>
</g>
</svg>
